<svg width="300" height="300" viewBox="0 0 300 300" fill="none" xmlns="http://www.w3.org/2000/svg">
<rect width="300" height="300" fill="#8000FF"/>
<path d="M57.832 138.416C61.5867 138.416 64.5947 139.44 66.856 141.488C69.1173 143.493 70.248 146.736 70.248 151.216V174H60.712V153.584C60.712 151.067 60.264 149.189 59.368 147.952C58.472 146.672 57.0427 146.032 55.08 146.032C52.1787 146.032 50.1947 147.035 49.128 149.04C48.0613 151.003 47.528 153.84 47.528 157.552V174H37.992V139.056H45.288L46.568 143.536H47.08C47.848 142.341 48.7867 141.381 49.896 140.656C51.0053 139.888 52.2427 139.333 53.608 138.992C54.9733 138.608 56.3813 138.416 57.832 138.416ZM89.5905 139.056V174H80.0545V139.056H89.5905ZM84.8545 125.36C86.2625 125.36 87.4785 125.701 88.5025 126.384C89.5265 127.024 90.0385 128.24 90.0385 130.032C90.0385 131.781 89.5265 132.997 88.5025 133.68C87.4785 134.363 86.2625 134.704 84.8545 134.704C83.4038 134.704 82.1665 134.363 81.1425 133.68C80.1612 132.997 79.6705 131.781 79.6705 130.032C79.6705 128.24 80.1612 127.024 81.1425 126.384C82.1665 125.701 83.4038 125.36 84.8545 125.36ZM109.091 147.12C109.091 148.443 109.027 149.765 108.899 151.088C108.813 152.368 108.707 153.669 108.579 154.992H108.707C109.133 154.395 109.56 153.797 109.987 153.2C110.456 152.603 110.925 152.005 111.395 151.408C111.864 150.811 112.355 150.235 112.867 149.68L122.659 139.056H133.411L119.523 154.224L134.243 174H123.235L113.187 159.856L109.091 163.12V174H99.5545V125.36H109.091V147.12ZM148.778 147.12C148.778 148.443 148.714 149.765 148.586 151.088C148.501 152.368 148.394 153.669 148.266 154.992H148.394C148.821 154.395 149.247 153.797 149.674 153.2C150.143 152.603 150.613 152.005 151.082 151.408C151.551 150.811 152.042 150.235 152.554 149.68L162.346 139.056H173.098L159.21 154.224L173.93 174H162.922L152.874 159.856L148.778 163.12V174H139.242V125.36H148.778V147.12ZM193.33 138.416C196.572 138.416 199.346 139.035 201.65 140.272C203.996 141.509 205.81 143.301 207.09 145.648C208.37 147.995 209.01 150.875 209.01 154.288V158.896H186.482C186.567 161.584 187.356 163.696 188.85 165.232C190.386 166.768 192.498 167.536 195.186 167.536C197.447 167.536 199.495 167.323 201.33 166.896C203.164 166.427 205.063 165.723 207.026 164.784V172.144C205.319 172.997 203.506 173.616 201.586 174C199.708 174.427 197.426 174.64 194.738 174.64C191.239 174.64 188.146 174 185.458 172.72C182.77 171.397 180.658 169.413 179.122 166.768C177.586 164.123 176.818 160.795 176.818 156.784C176.818 152.688 177.5 149.296 178.866 146.608C180.274 143.877 182.215 141.829 184.69 140.464C187.164 139.099 190.044 138.416 193.33 138.416ZM193.394 145.2C191.559 145.2 190.023 145.797 188.786 146.992C187.591 148.187 186.887 150.043 186.674 152.56H200.05C200.05 151.152 199.794 149.893 199.282 148.784C198.812 147.675 198.087 146.8 197.106 146.16C196.124 145.52 194.887 145.2 193.394 145.2ZM210.5 139.056H220.932L227.524 158.704C227.737 159.344 227.908 159.984 228.036 160.624C228.207 161.264 228.335 161.925 228.42 162.608C228.548 163.291 228.633 164.016 228.676 164.784H228.868C228.996 163.675 229.167 162.629 229.38 161.648C229.636 160.624 229.913 159.643 230.212 158.704L236.676 139.056H246.916L232.132 178.48C231.236 180.869 230.063 182.875 228.612 184.496C227.204 186.117 225.561 187.333 223.684 188.144C221.807 188.955 219.759 189.36 217.54 189.36C216.473 189.36 215.535 189.296 214.724 189.168C213.956 189.083 213.273 188.976 212.676 188.848V181.296C213.145 181.381 213.7 181.467 214.34 181.552C215.023 181.637 215.727 181.68 216.452 181.68C217.775 181.68 218.905 181.403 219.844 180.848C220.825 180.293 221.636 179.525 222.276 178.544C222.916 177.605 223.428 176.581 223.812 175.472L224.388 173.744L210.5 139.056ZM261.466 174H251.93V125.36H261.466V174Z" fill="white"/>
<rect x="79" y="124" width="11.5" height="11.5" rx="5.75" fill="#FFE600"/>
</svg>
