<svg style="display: none;" aria-hidden="true" xmlns="http://www.w3.org/2000/svg" xmlns:xlink="http://www.w3.org/1999/xlink"><symbol viewBox="0 0 21 39" id="arrow"><path d="M18.6329 38.5965C18.9034 38.8655 19.2415 39 19.6135 39C19.9855 39 20.3237 38.8655 20.5942 38.5965C21.1353 38.0586 21.1353 37.1845 20.5942 36.6466L3.34783 19.5L20.5942 2.35345C21.1353 1.81552 21.1353 0.941379 20.5942 0.403448C20.0531 -0.134483 19.1739 -0.134483 18.6329 0.403448L0.405798 18.525C-0.135265 19.0629 -0.135265 19.9371 0.405798 20.475L18.6329 38.5965Z"/></symbol><symbol viewBox="0 0 16 16" id="call"><path d="M15.6413 12.6552L13.1704 10.1784C12.6782 9.6871 11.8632 9.70203 11.3538 10.2127L10.109 11.4601C10.0303 11.4167 9.94891 11.3713 9.86332 11.3231C9.07719 10.8866 8.00124 10.2882 6.86903 9.15259C5.73347 8.01458 5.1359 6.93454 4.69898 6.14613C4.65288 6.0626 4.6087 5.98207 4.56508 5.90559L5.40057 5.06945L5.81133 4.65725C6.32143 4.14586 6.33549 3.32921 5.84448 2.83648L3.37353 0.359373C2.88251 -0.132666 2.0671 -0.117739 1.55701 0.39365L0.860608 1.09563L0.879638 1.11457C0.646127 1.4132 0.450997 1.75763 0.305788 2.12905C0.171932 2.4826 0.0885942 2.81998 0.0504876 3.15805C-0.275785 5.86906 0.960264 8.34671 4.31474 11.7088C8.95165 16.3559 12.6884 16.0049 12.8496 15.9877C13.2007 15.9457 13.5372 15.8616 13.8791 15.7285C14.2465 15.5847 14.5899 15.3894 14.8877 15.1558L14.9029 15.1694L15.6084 14.477C16.1174 13.9657 16.1321 13.1487 15.6413 12.6552Z"/></symbol><symbol viewBox="0 0 15 15" id="check"><path d="M9.29151 5.13861L6.02781 8.85799L4.70852 7.35474C4.54639 7.17019 4.28376 7.17008 4.12164 7.35485C3.95945 7.53969 3.95945 7.83904 4.12164 8.02381L5.73442 9.86158C5.81547 9.95383 5.92164 10 6.02781 10C6.13399 10 6.24044 9.95384 6.32146 9.86143C6.32171 9.86104 6.3219 9.86064 6.32231 9.86017L9.87836 5.80746C10.0405 5.6228 10.0405 5.32323 9.87836 5.13857C9.71627 4.9538 9.45345 4.9538 9.29151 5.13861Z" stroke-width=".5"/><path fill-rule="evenodd" clip-rule="evenodd" d="M1 7.5C1 3.9159 3.91567 1 7.49987 1C11.0841 1 14 3.9159 14 7.5C14 11.0841 11.0841 14 7.49987 14C3.91567 14 1 11.0841 1 7.5ZM1.85247 7.5C1.85247 10.614 4.38585 13.1475 7.49987 13.1475C10.6139 13.1475 13.1475 10.614 13.1474 7.5C13.1474 4.38598 10.6139 1.85251 7.49987 1.85251C4.38582 1.85251 1.85247 4.38595 1.85247 7.5Z"/><path d="M13.1474 7.5L12.8974 7.5L12.8974 7.5L13.1474 7.5ZM7.49987 0.75C3.77759 0.75 0.75 3.77784 0.75 7.5H1.25C1.25 4.05396 4.05375 1.25 7.49987 1.25V0.75ZM14.25 7.5C14.25 3.77782 11.2221 0.75 7.49987 0.75V1.25C10.946 1.25 13.75 4.05398 13.75 7.5H14.25ZM7.49987 14.25C11.2221 14.25 14.25 11.2222 14.25 7.5H13.75C13.75 10.946 10.946 13.75 7.49987 13.75V14.25ZM0.75 7.5C0.75 11.2222 3.77759 14.25 7.49987 14.25V13.75C4.05375 13.75 1.25 10.946 1.25 7.5H0.75ZM7.49987 12.8975C4.52393 12.8975 2.10247 10.476 2.10247 7.5H1.60247C1.60247 10.7521 4.24777 13.3975 7.49987 13.3975V12.8975ZM12.8974 7.5C12.8975 10.4759 10.4758 12.8975 7.49987 12.8975V13.3975C10.752 13.3975 13.3975 10.7521 13.3974 7.5L12.8974 7.5ZM7.49987 2.10251C10.4759 2.10251 12.8974 4.52405 12.8974 7.5H13.3974C13.3974 4.24791 10.752 1.60251 7.49987 1.60251V2.10251ZM2.10247 7.5C2.10247 4.52401 4.52389 2.10251 7.49987 2.10251V1.60251C4.24774 1.60251 1.60247 4.24788 1.60247 7.5H2.10247Z"/></symbol><symbol viewBox="0 0 30 30" id="circle"><path clip-rule="evenodd" d="M15 28C22.1797 28 28 22.1797 28 15C28 7.8203 22.1797 2 15 2C7.8203 2 2 7.8203 2 15C2 22.1797 7.8203 28 15 28Z" stroke-opacity=".2" stroke-width="3"/></symbol><symbol viewBox="0 0 16 12" id="email"><path fill-rule="evenodd" clip-rule="evenodd" d="M14.9533 0.251998L8.00002 6.33595L1.04736 0.251998C1.33154 0.0957935 1.65296 0 1.99999 0H14C14.3466 0 14.668 0.0957935 14.9533 0.251998ZM15.7433 10.962C15.9013 10.6759 16 10.3507 16 9.99994V2.00009C16 1.60851 15.8829 1.24614 15.6885 0.937655L10.6914 5.30966L15.7433 10.962ZM9.93854 5.96788L8.32904 7.37705C8.2349 7.45906 8.11767 7.50002 8.00002 7.50002C7.88229 7.50002 7.76507 7.45906 7.67092 7.37705L6.06107 5.96782L0.945304 11.6924C1.25194 11.8848 1.61131 12 1.99995 12H14C14.3886 12 14.7482 11.8848 15.0547 11.6924L9.93854 5.96788ZM0 2.00009C0 1.60847 0.117194 1.24611 0.311551 0.937622L5.30811 5.3087L0.256845 10.962C0.0982006 10.6759 0 10.3507 0 9.99998V2.00009Z"/></symbol><symbol viewBox="0 0 16 14" id="telegram"><path fill-rule="evenodd" clip-rule="evenodd" d="M3.96933 8.0958L0.282608 6.71295C-0.0918463 6.57193 -0.0950996 6.04066 0.278288 5.89594L15.4087 0.0300401C15.7295 -0.0946306 16.0604 0.187781 15.9906 0.526311L13.2753 13.6522C13.2113 13.9621 12.8498 14.1026 12.5946 13.9162L8.88801 11.2118C8.66288 11.0475 8.35606 11.0563 8.14064 11.2327L6.0856 12.9164C5.84704 13.1124 5.48763 13.0032 5.39632 12.7078L3.96933 8.0958ZM12.8005 3.01974L5.35628 7.37763C5.07096 7.54501 4.93662 7.87251 5.02881 8.1791L5.83369 10.8672C5.89083 11.0577 6.18172 11.0381 6.20944 10.8413L6.41872 9.36721C6.45817 9.08968 6.59747 8.83399 6.81342 8.64293L12.9571 3.21489C13.072 3.1136 12.9343 2.94165 12.8005 3.01974Z"/></symbol><symbol viewBox="0 0 29 27" id="triangle"><path clip-rule="evenodd" d="M25.9279 2.16003L16.2157 23.5358L3 7.21573L25.9279 2.16003Z" stroke-opacity=".2" stroke-width="3"/></symbol><symbol viewBox="0 0 19 19" id="viber"><path d="M17.0789 2.12558C15.4992 0.653148 12.9453 -0.0603014 9.48679 0.00398691C5.9995 0.069196 3.66841 0.651139 2.15077 1.83545C0.683408 2.98042 0 4.65585 0 7.10809V9.61082C0 12.5058 1.63166 15.6885 4.75013 16.1701C5.11015 16.2261 5.4493 15.9934 5.50776 15.651C5.56622 15.3088 5.32181 14.9863 4.96179 14.9307C2.59681 14.5654 1.32068 11.9172 1.32068 9.61082V7.10809C1.32068 3.59183 2.6911 1.38685 9.51268 1.25928C12.6053 1.20102 14.8374 1.7946 16.1542 3.0221C17.1804 3.97881 17.6792 5.3153 17.6792 7.10809V9.61082C17.6792 13.4006 15.8901 15.0722 11.3011 15.5644H8.04716C7.87204 15.5644 7.70405 15.6306 7.58026 15.7483L5.28747 17.9282C5.02959 18.1734 5.02959 18.5709 5.28747 18.8161C5.41637 18.9386 5.58542 19 5.75438 19C5.92334 19 6.09238 18.9387 6.22128 18.8161L8.32072 16.8201H11.338C11.3623 16.8201 11.3867 16.8188 11.4109 16.8162C14.0372 16.5389 15.8356 15.8891 17.0704 14.771C18.3688 13.5954 19 11.9075 19 9.61073V7.10809C19 4.99035 18.3537 3.314 17.0789 2.12558Z"/><path d="M9.74881 3.9293C9.7489 3.9293 9.7489 3.9293 9.74909 3.9293C10.8788 3.9293 11.9409 4.34931 12.7398 5.11189C13.5388 5.87455 13.9788 6.88858 13.9787 7.96713C13.9787 8.33673 14.2925 8.63637 14.6797 8.63637C14.6798 8.63637 14.6798 8.63637 14.6798 8.63637C15.067 8.63637 15.3809 8.33681 15.3809 7.96722C15.381 6.53112 14.7952 5.18095 13.7314 4.1655C12.6677 3.15004 11.2535 2.59091 9.74909 2.59091C9.74899 2.59091 9.74871 2.59091 9.74862 2.59091C9.36142 2.59091 9.04761 2.89055 9.04761 3.26015C9.0477 3.62966 9.36161 3.9293 9.74881 3.9293Z"/><path d="M9.70351 6.43419C10.6138 6.43436 11.3546 7.14136 11.3547 8.01026 11.3548 8.35608 11.6484 8.63645 12.0108 8.63636 12.3731 8.63636 12.6667 8.35591 12.6667 8.01009 12.6664 6.4508 11.3373 5.18207 9.70368 5.18182H9.7036C9.34132 5.18182 9.04769 5.4621 9.04761 5.80792 9.04761 6.15374 9.34123 6.43419 9.70351 6.43419zM6.78974 7.2127C6.4932 7.40626 6.41714 7.79264 6.61983 8.0757 6.82253 8.35876 7.2274 8.43128 7.52394 8.2378 7.75717 8.08563 8.30341 7.72914 8.26508 7.01648 8.24079 6.58995 7.83774 5.98095 7.50391 5.54514 7.0156 4.90749 6.59477 4.52343 6.25573 4.40437 5.93915 4.29186 5.60809 4.28946 5.27105 4.39742 4.57293 4.62195 4.06606 5.0277 3.80534 5.5708 3.55148 6.0995 3.55711 6.7071 3.82174 7.32827 4.44674 8.79183 5.3217 10.0732 6.42815 11.1422 7.54224 12.1927 8.88452 13.0279 10.4184 13.6248 10.7503 13.7537 11.0787 13.8182 11.3943 13.8182 11.697 13.8182 11.988 13.7589 12.2591 13.6403 12.8281 13.3913 13.2531 12.9076 13.4886 12.2404 13.6013 11.9194 13.5988 11.6035 13.4819 11.3034 13.3563 10.9775 12.9539 10.5759 12.2859 10.1098 11.8293 9.79111 11.1913 9.40638 10.7427 9.38312 9.99766 9.34736 9.62453 9.86786 9.46511 10.0905 9.26233 10.3735 9.33822 10.7599 9.63476 10.9536 9.93139 11.1472 10.3361 11.0747 10.539 10.7916 10.6097 10.6929 10.6501 10.648 10.6733 10.6284 11.0385 10.74 12.0797 11.4703 12.2671 11.7501 12.2717 11.768 12.2728 11.7952 12.2554 11.8448 12.1734 12.0774 12.0133 12.3818 11.7171 12.5114 11.4397 12.6326 11.1244 12.5583 10.9091 12.4747 9.53467 11.9398 8.33472 11.1943 7.34805 10.264 6.36787 9.31697 5.58684 8.17157 5.02681 6.86009 4.93903 6.65411 4.86106 6.353 4.98812 6.08841 5.12386 5.80568 5.44287 5.65285 5.68572 5.57469 5.73758 5.55814 5.76612 5.55905 5.7859 5.5636 6.07914 5.74284 6.84369 6.73616 6.96078 7.08479 6.94014 7.10656 6.89322 7.14522 6.78974 7.2127z"/></symbol><symbol viewBox="0 0 18 18" id="whatsapp"><path fill-rule="evenodd" clip-rule="evenodd" d="M18 8.7682C18 13.6108 14.0442 17.5364 9.1636 17.5364C7.6142 17.5364 6.1586 17.1404 4.8922 16.4454L0 18L1.595 13.2956C0.7904 11.9744 0.327 10.4248 0.327 8.7682C0.327 3.9256 4.2832 0 9.1636 0C14.0446 0 18 3.9256 18 8.7682ZM9.1636 1.3964C5.0668 1.3964 1.7344 4.7034 1.7344 8.7682C1.7344 10.3812 2.2602 11.875 3.1496 13.0902L2.2214 15.828L5.0764 14.9206C6.2494 15.6908 7.6546 16.14 9.1638 16.14C13.26 16.14 16.593 12.8334 16.593 8.7686C16.593 4.7038 13.2602 1.3964 9.1636 1.3964ZM13.3279 10.5937C13.4794 10.6664 13.5818 10.7155 13.6258 10.7876C13.6796 10.8772 13.6796 11.3074 13.4996 11.8098C13.3184 12.3114 12.434 12.7954 12.0372 12.8312C11.9692 12.8374 11.9128 12.8509 11.855 12.8648C11.5754 12.9319 11.2628 13.0069 9.4378 12.294C7.40286 11.4987 6.06155 9.52466 5.78435 9.11669C5.76159 9.0832 5.74601 9.06026 5.7378 9.0494L5.73744 9.04892C5.62748 8.90394 4.8534 7.88323 4.8534 6.8268C4.8534 5.83741 5.34316 5.31851 5.56868 5.07957C5.58419 5.06314 5.59844 5.04804 5.6112 5.0342C5.8098 4.8192 6.0446 4.7654 6.189 4.7654C6.26363 4.7654 6.33832 4.77021 6.41049 4.77485C6.47795 4.7792 6.54322 4.7834 6.6042 4.7834C6.61934 4.7834 6.63525 4.78238 6.65184 4.78131C6.77391 4.77345 6.93258 4.76323 7.0914 5.1418C7.14922 5.27975 7.23305 5.48213 7.32206 5.697C7.51075 6.15253 7.72271 6.66422 7.7594 6.7372C7.8138 6.845 7.85 6.9704 7.7774 7.1138C7.76709 7.13443 7.75751 7.15394 7.74835 7.1726C7.69376 7.28383 7.654 7.36484 7.561 7.4724C7.52515 7.51395 7.48808 7.55871 7.451 7.6035C7.37617 7.69387 7.30126 7.78434 7.236 7.8488C7.1278 7.9558 7.0148 8.072 7.141 8.287C7.2674 8.5024 7.7022 9.2056 8.346 9.7752C9.03856 10.3879 9.64031 10.6469 9.94496 10.7781C10.0043 10.8036 10.0523 10.8243 10.0876 10.8418C10.3044 10.9494 10.4306 10.9314 10.557 10.7876C10.6836 10.6442 11.0988 10.1604 11.243 9.9452C11.3872 9.7302 11.532 9.7662 11.7306 9.8378C11.9286 9.9092 12.9938 10.4294 13.2106 10.5368C13.2524 10.5576 13.2916 10.5763 13.3279 10.5937Z"/></symbol></svg>